       Barbie In The Pink Shoes(2013)1920x1080p BDRip[Hindi-Eng]-DGrea8 


Summary:-

Dance your way to a magical adventure with Barbie(TM) as Kristyn(TM), a ballerina with big dreams! When she tries on a pair of sparkling pink shoes, she and her best friend, Hailey(TM), are whisked away to a fantastical ballet world. There, Kristyn(TM) discovers she must dance in her favorite ballets in order to defeat an evil Snow Queen. With performances to the legendary Giselle and Swan Lake ballets, it's a wonderful journey where if you dance with your heart, dreams come true! Written by Mattel


Cast:-

Ali Liebert	 ...	Tara / Hannah
Bill Mondy	 ...	Rothbart / Thorpe / Peasant
Lori Triolo	 ...	Madame Katerina
Teryl Rothery	 ...	Giselle's Mom / Queen Vera
Trevor Devall	 ...	Albrecht / Ballet Scout #1
Kyle Rideout	 ...	Hilarion / Ballet Scout #2


Rest of cast listed alphabetically:

Katie Crown	 ...	Hailey
Brett Dier	 ...	Dillon / Prince Seigfried
Kelly Sheridan	 ...	Kristyn
Tabitha St. Germaine ...	Madame Natasha / Snow Queen / Sugar Plum Fairy / Swan Dancer / Stage Manager
Donavon Stinson	 ...	Motion capture actor



Video & Audio Info.:-

Director: Owen Hurley
Writer: Alison Taylor
Stars: Ali Liebert, Bill Mondy, Lori Triolo
Release Date: February 2013 (USA)
Genres: Animation | Family


Video
ID : 1
Format : AVC
Format/Info : Advanced Video Codec
Duration : 1h 14mn
Bit rate : 2 019 Kbps
Width : 1 920 pixels
Height : 1 080 pixels
Display aspect ratio : 16:9
Frame rate mode : Variable
Frame rate : 23.976 fps
Color space : YUV
Chroma subsampling : 4:2:0
Bit depth : 8 bits
Scan type : Progressive
Bits/(Pixel*Frame) : 0.041
Stream size : 1.01 GiB (80%)

Audio #1
ID : 2
Format : AC-3
Format/Info : Audio Coding 3
Codec ID : A_AC3
Duration : 1h 14mn
Bit rate mode : Constant
Bit rate : 224 Kbps
Channel(s) : 6 channels
Channel positions : Front: L C R, Side: L R, LFE
Sampling rate : 48.0 KHz
Bit depth : 16 bits
Compression mode : Lossy
Stream size : 120 MiB (9%)
Language : English

Audio #2
ID : 3
Format : AC-3
Format/Info : Audio Coding 3
Codec ID : A_AC3
Duration : 1h 14mn
Bit rate mode : Constant
Bit rate : 224 Kbps
Channel(s) : 2 channels
Channel positions : Front: L R
Sampling rate : 44.1 KHz
Bit depth : 16 bits
Compression mode : Lossy
Delay relative to video : 535ms
Stream size : 120 MiB (9%)
Language : Hindi


Subtitle Languages : English



Screen Shoots:-
  
http://www.shotpix.com/images/48648510091948676055.jpg
 
http://www.shotpix.com/images/75647020731583285101.jpg
 
http://www.shotpix.com/images/11835945414692797472.jpg
 
http://www.shotpix.com/images/76815923491384743249.jpg
 
http://www.shotpix.com/images/90733176718285883336.jpg



Note:-- Check The Torrent


Check The Sample Video In This Torrent	